<svg xmlns="http://www.w3.org/2000/svg" viewBox="0 0 100 100">
  <defs>
    <linearGradient id="grad" x1="0%" y1="0%" x2="100%" y2="100%">
      <stop offset="0%" style="stop-color:#4158D0;stop-opacity:1" />
      <stop offset="50%" style="stop-color:#C850C0;stop-opacity:1" />
      <stop offset="100%" style="stop-color:#FFCC70;stop-opacity:1" />
    </linearGradient>
  </defs>
  
  <!-- Background rounded square -->
  <rect width="100" height="100" rx="20" fill="url(#grad)"/>
  
  <!-- Letter P -->
  <path d="M 20 25 L 20 75 L 25 75 L 25 52 L 45 52 C 55 52 60 47 60 38.5 C 60 30 55 25 45 25 Z M 25 30 L 43 30 C 50 30 55 33 55 38.5 C 55 44 50 47 43 47 L 25 47 Z" fill="white"/>
  
  <!-- Letter H -->
  <path d="M 65 25 L 65 75 L 70 75 L 70 52 L 85 52 L 85 75 L 90 75 L 90 25 L 85 25 L 85 47 L 70 47 L 70 25 Z" fill="white"/>
</svg>
